# xmcd
#
# Track frame offsets:
#	150
#	22099
#	42709
#	55224
#	67481
#	81233
#	93468
#	109373
#	132646
#	157752
#	173137
#	188262
#	201780
#	214482
#	224076
#	237353
#	258394
#	274421
#	290707
#	309342
#
# Disc length: 4305 seconds
#
# Revision: 1
# Processed by: cddbd v1.5.2PL0 Copyright (c) Steve Scherf et al.
# Submitted via: FairStars CD Ripper 1.80
#
DISCID=4610cf14
DTITLE=Various Artist - Classic Blues From Bluesville cd1
DYEAR=2014
DGENRE=Blues
TTITLE0=Lightnin' Hopkins - Walkin' This Road By Myself 
TTITLE1=Memphis Slim - Grinder Man Blues 
TTITLE2=Blind Willie McTell - Broke Down Engine Blues 
TTITLE3=Alberta Hunter - You Gotta Reap What You Sow 
TTITLE4=Lonnie Johnson - No Love for Sale 
TTITLE5=Brownie McGhee and Sonny Terry - Custard Pie Blues 
TTITLE6=Victoria Spivey - I'm A Red Hot Mama 
TTITLE7=Scrapper Blackwell - Blues Before Sunrise 
TTITLE8=Mildred Anderson - Everybody's Got Somebody But Me 
TTITLE9=K.C. Douglas - Big Road Blues 
TTITLE10=Al Smith - Goin' to Alabama 
TTITLE11=Furry Lewis - Done Changed My Mind 
TTITLE12=Robert Pete Williams - I've Grown So Ugly 
TTITLE13=Shakey Jake - Jake's Cha Cha 
TTITLE14=Henry Townsend - Tired of Being Mistreated 
TTITLE15=Pink Anderson - Greasy Greens 
TTITLE16=Sonny Terry - Four O'clock Blues 
TTITLE17=Memphis Willie B. - Wine Drinking Women 
TTITLE18=Curtis Jones - Suicide Blues 
TTITLE19=Big Joe Williams - Pallet On The Floor 
EXTD=
EXTT0=
EXTT1=
EXTT2=
EXTT3=
EXTT4=
EXTT5=
EXTT6=
EXTT7=
EXTT8=
EXTT9=
EXTT10=
EXTT11=
EXTT12=
EXTT13=
EXTT14=
EXTT15=
EXTT16=
EXTT17=
EXTT18=
EXTT19=
PLAYORDER=
